<svg version="1.2" xmlns="http://www.w3.org/2000/svg" viewBox="0 0 270 100" width="270" height="100"><style>.a{fill:none;stroke:#00b5d3;stroke-miterlimit:10}.b{fill:#fff;stroke:#00b5d3;stroke-miterlimit:10}</style><path class="a" d="m264.4 29.9l-25.8-25.9h-127l-23.6 23.6h-82"/><path class="b" d="m5.4 30.4c-1.4 0-2.5-1.1-2.5-2.5 0-1.4 1.1-2.6 2.5-2.6 1.5 0 2.6 1.2 2.6 2.6 0 1.4-1.1 2.5-2.6 2.5z"/><path class="b" d="m264.4 32.4c-1.4 0-2.5-1.1-2.5-2.5 0-1.4 1.1-2.6 2.5-2.6 1.5 0 2.6 1.2 2.6 2.6 0 1.4-1.1 2.5-2.6 2.5z"/></svg>