<svg version="1.2" xmlns="http://www.w3.org/2000/svg" viewBox="0 0 100 100" width="100" height="100"><style>.a{fill:#00b5d3}</style><path class="a" d="m16.8 65c-1.9-4.5-3-9.4-3-14.6 0-9.3 3.5-17.9 9.2-24.4q-0.7-0.8-1.5-1.5-0.2-0.3-0.4-0.5c-6.3 7-10.1 16.3-10.1 26.4 0 5.6 1.2 10.9 3.2 15.7q1.3-0.6 2.6-1.1z"/><path class="a" d="m87.6 53.7q1.3 0.3 2.7 0.5 0.2-1.8 0.2-3.8c0-9.5-3.4-18.3-9-25.1q-1.1 0.8-2.1 1.7c5.2 6.4 8.3 14.6 8.3 23.4q0 1.7-0.1 3.3z"/><path class="a" d="m82.2 69.8c-6.5 10.5-18.1 17.6-31.4 17.6-8.8 0-16.8-3.1-23.2-8.2q-0.9 1.1-1.9 2.1c6.9 5.5 15.6 8.9 25.1 8.9 14.3 0 26.9-7.7 33.9-19.1q-1.2-0.7-2.5-1.3z"/></svg>