<svg version="1.2" xmlns="http://www.w3.org/2000/svg" viewBox="0 0 100 100" width="100" height="100"><style>.a{fill:#00b5d3}</style><path class="a" d="m71.8 7.2c-5.1-2.6-10.7-4.4-16.6-5v2.9c5.5 0.7 10.6 2.3 15.3 4.7q0.6-1.3 1.3-2.6z"/><path class="a" d="m94.9 46.7h3c-1-14.1-8.1-26.6-18.6-34.8q-0.7 1.4-1.4 2.7c9.6 7.7 16.1 19.1 17 32.1z"/><path class="a" d="m5 55.4q-1.5 0-3 0c2 17.6 13.4 32.3 29.1 39q0.6-1.4 1.1-2.7c-14.6-6.2-25.3-19.9-27.2-36.3z"/><path class="a" d="m17.1 14.8c-6.7 6.2-11.7 14.3-14 23.4q1.5 0.3 2.9 0.7c2.2-8.6 6.9-16.2 13.2-22q-1-1.1-2.1-2.1z"/><path class="a" d="m24.2 9.3q1 1.1 2.1 2.2c5.9-3.7 12.8-6 20.1-6.6v-2.9c-8.1 0.6-15.7 3.2-22.2 7.3z"/><path class="a" d="m83.3 80.3c-7.9 8.8-19.2 14.4-31.8 14.9v2.9c13.4-0.4 25.5-6.4 33.9-15.7z"/></svg>