<svg version="1.2" xmlns="http://www.w3.org/2000/svg" viewBox="0 0 60 60" width="60" height="60"><style>.a{fill:#00b5d3}.b{fill:#fff}</style><path class="a" d="m30 60.8q0 0 0 0c-8 0-15.6-3.2-21.2-8.9-11.7-11.9-11.7-31.2 0-43.1 5.6-5.8 13.2-9 21.2-9 8 0 15.6 3.2 21.2 9 11.7 11.9 11.7 31.2 0 43.1-5.6 5.7-13.2 8.9-21.2 8.9zm0-59.2c-7.5 0-14.6 3-20 8.4-11 11.2-11 29.4 0 40.6 5.4 5.5 12.5 8.4 20 8.4 7.5 0 14.6-2.9 20-8.4 11-11.2 11-29.4 0-40.6-5.4-5.4-12.5-8.4-20-8.4z"/><path class="a" d="m30 13c-4.4 0-8.7 1.7-12 5.1-6.7 6.8-6.7 17.7 0 24.4 3.3 3.4 7.6 5.1 12 5.1 4.4 0 8.7-1.7 12-5.1 6.7-6.7 6.7-17.6 0-24.4-3.3-3.4-7.6-5.1-12-5.1zm0 8.2c2.3 0 4.6 0.9 6.2 2.6 3.6 3.6 3.6 9.4 0 13-1.6 1.7-3.9 2.7-6.2 2.7-2.3 0-4.6-1-6.2-2.7-3.6-3.6-3.6-9.4 0-13 1.6-1.7 3.9-2.6 6.2-2.6z"/><path class="b" d="m10 51.9l-1.2-1.3 10-10.1 1.2 1.2z"/><path class="b" d="m40.8 20.6l-1.2-1.2 10-10.2 1.2 1.2z"/></svg>