<?xml version="1.0" encoding="utf-8"?>
<!-- Generator: Adobe Illustrator 23.0.5, SVG Export Plug-In . SVG Version: 6.00 Build 0)  -->
<svg version="1.1" id="Calque_1" xmlns="http://www.w3.org/2000/svg" xmlns:xlink="http://www.w3.org/1999/xlink" x="0px" y="0px"
	 viewBox="0 0 1133.9 1133.3" style="enable-background:new 0 0 1133.9 1133.3;" xml:space="preserve">
<style type="text/css">
	.st0{fill:#21B3D2;}
	.st1{fill:#FFFFFF;}
	.st2{display:none;enable-background:new    ;}
	.st3{font-family:'EthnocentricRg-Regular';}
	.st4{font-size:80.1576px;}
</style>
<g>
	<path class="st0" d="M816.4,710.8c-1.3,3-3.1,6.8-5.3,11.2l231-400.1H106.9L330,708.4c0,0,0-0.1,0-0.2c0.6-0.7,1.2-1.4,1.7-2.1
		c1.4-1.6,2.8-3.2,4.2-4.8c0.8-0.8,1.5-1.6,2.3-2.4c0.8-0.8,1.5-1.6,2.3-2.3c0.9-0.9,1.8-1.9,2.7-2.8c1-1,2-2,3-2.9
		c4.7-4.5,9.7-8.7,14.9-12.6c0.8-0.6,1.6-1.2,2.5-1.8c5.3-3.9,10.7-7.5,16.4-10.8c1.2-0.7,2.4-1.4,3.7-2.1h0
		c0.2-0.2,0.4-0.3,0.6-0.5c0.1-0.1,0.3-0.2,0.4-0.3c0.5-0.3,0.9-0.6,1.4-0.9c0.8-0.5,1.6-1,2.5-1.5c0,0,0.1,0,0.1-0.1
		c1-0.6,2-1.2,3.1-1.7c0.5-0.2,0.9-0.5,1.4-0.7c0.2-0.1,0.4-0.2,0.6-0.3c0.8-0.4,1.6-0.8,2.4-1.1c0.5-0.2,1.1-0.5,1.7-0.7
		c0.6-0.2,1.2-0.5,1.8-0.7c0.7-0.3,1.5-0.5,2.3-0.8c0.9-0.3,1.9-0.6,2.8-0.9c0.8-0.2,1.6-0.4,2.4-0.6c4.9-1.1,10.9-1.8,15.2-2
		c0.7,0,1.4,0,2,0h0.3c1.1,0,2.3,0,3.4,0.1c1.2,0,2.4,0.2,3.6,0.3c1.2,0.1,2.4,0.3,3.5,0.5c2.3,0.3,4.6,0.8,6.9,1.4
		c0.1,0,0.3,0.1,0.5,0.1c0.9,0.2,1.8,0.5,2.6,0.7c0.2,0.1,0.5,0.2,0.7,0.2c28.9,9.1,49.8,36.1,49.8,68v207.8H650V640.3
		c0-0.5,0-0.9,0.1-1.3c0,0,0.2-3.9-0.8-10.5c-0.1-0.5-0.2-1.1-0.3-1.6c-0.2-1.2-0.4-2.3-0.7-3.5c-0.1-0.6-0.3-1.2-0.4-1.8
		c-0.1-0.4-0.2-0.8-0.3-1.2c-0.2-0.6-0.3-1.2-0.5-1.8c-0.3-1.2-0.8-2.4-1.2-3.6c-0.3-0.7-0.5-1.4-0.8-2c-0.8-2-1.7-4-2.6-5.9
		c-0.5-1-1-2-1.6-3c-0.2-0.3-0.3-0.5-0.5-0.9c-0.6-1-1.2-1.9-1.8-2.8c0-0.1-0.1-0.2-0.2-0.2c-0.7-1-1.3-2-2-3
		c-0.1-0.2-0.2-0.3-0.3-0.4c-0.8-1-1.5-2-2.3-3c-0.8-1-1.7-2-2.6-3c0,0,0,0,0,0c-0.9-1-1.8-1.9-2.7-2.8c-1.8-1.8-3.7-3.4-5.7-5
		c-1.3-1.1-2.7-2.1-4.1-3c-0.2-0.1-0.3-0.2-0.5-0.3c-1-0.7-2.1-1.4-3.2-2c-24-15.2-44.3-35.8-59.2-60.1
		c-17.5-28.4-27.5-61.9-27.5-97.6c0-12,1.1-23.8,3.3-35.1c0-0.3,0-0.6,0.1-1c0.6-3.1,1.3-6.2,2.1-9.3c3.9,35.7,34.2,63.4,70.9,63.4
		c11.1,0,21.6-2.5,30.9-7c-5.7,2.8-11.8,4.8-18.2,6c6.2,35.7,31.5,64.8,64.9,76.5c0.1,0,0.2,0.1,0.3,0.1c1.5,0.5,3,1,4.5,1.5
		c0.1,0,0.2,0.1,0.3,0.1c9.5,3.3,18.7,7.2,27.5,11.8c14.8,7.8,28.5,17.4,40.7,28.6c11.9,10.8,22.5,23.2,31.3,36.7
		c7.8,11.9,16.1,27.3,22.2,46.1c0,0,8.4,25.5,9.4,52.1c0,1.6,0.3,4.1,0.2,7.5C818.5,703.4,817.3,707.9,816.4,710.8z M619,380.9
		c-4.4,1.5-9,2.2-13.9,2.2c-16.3,0-30.6-8.9-38.2-22c3.9-6.8,9.6-12.4,16.4-16.3c6.5-3.6,13.8-5.7,21.8-5.7
		c16.3,0,30.5,8.9,38.2,22.1C637.9,370.4,629.3,377.5,619,380.9z M714.8,888.8L714.8,888.8c0-0.1-0.1-0.1-0.1-0.1
		C714.7,888.7,714.8,888.8,714.8,888.8z"/>
	<path d="M650,693.9v234.8c-44.3-7.8-83.2-31.2-110.8-64.2c-27.1-32.4-43.4-74.1-43.4-119.6v-22.7c0-30.9-19.7-57.2-47.1-67.1
		c-0.9-0.3-1.8-0.6-2.7-0.9c-0.2-0.1-0.5-0.2-0.7-0.2c-0.9-0.3-1.8-0.5-2.6-0.7c-0.1,0-0.3-0.1-0.5-0.1c-2.2-0.6-4.5-1-6.9-1.4
		c-1.2-0.2-2.4-0.3-3.5-0.5c-1.2-0.1-2.4-0.2-3.6-0.3c-1.1-0.1-2.3-0.1-3.4-0.1h-0.3c-0.6,0-1.3,0-2,0c-5.2,0.1-10.3,0.8-15.2,2
		c-0.9,0.2-1.7,0.4-2.4,0.6c-0.9,0.3-1.9,0.5-2.8,0.9c-0.9,0.3-1.6,0.5-2.3,0.8c-0.6,0.2-1.2,0.5-1.8,0.7c-0.6,0.2-1.1,0.5-1.7,0.7
		c-0.8,0.3-1.6,0.7-2.4,1.1c-0.2,0.1-0.5,0.2-0.6,0.3c-0.5,0.2-0.9,0.5-1.4,0.7c-1.1,0.5-2.1,1.1-3.1,1.7c0,0-0.1,0-0.1,0.1
		c-0.9,0.5-1.7,1-2.5,1.5c-0.5,0.3-0.9,0.6-1.4,0.9c-0.1,0.1-0.3,0.2-0.4,0.3c-0.2,0.1-0.4,0.3-0.6,0.4v0h0
		c-1.2,0.7-2.5,1.4-3.7,2.1c-5.7,3.3-11.1,6.9-16.4,10.8c-0.8,0.6-1.6,1.2-2.5,1.8c-5.2,4-10.1,8.2-14.9,12.6c-1,1-2,1.9-3,2.9
		c-0.9,0.9-1.9,1.8-2.7,2.8c-0.8,0.8-1.5,1.5-2.3,2.3c-0.8,0.8-1.5,1.6-2.3,2.4c-1.4,1.6-2.8,3.2-4.2,4.8c-0.6,0.7-1.2,1.4-1.7,2.1
		c1.2-8.1,2.7-17.3,4.7-27.5c8.1-55.9,25.6-108.7,50.8-156.8c40.2-76.5,100.1-141,172.9-186.8c-6.3,5-11.7,11-16,17.8
		c-3,4.8-5.5,9.9-7.3,15.3c0,0,0,0.1,0,0.1c-0.3,0.7-0.6,1.4-0.9,2.1c0,0.1-0.1,0.3-0.2,0.4c0,0,0,0.1,0,0.1
		c-0.1,0.5-0.2,0.9-0.3,1.3c-0.8,3.1-1.5,6.2-2.1,9.3c0,0.3-0.1,0.6-0.2,1c-2.2,11.4-3.3,23.1-3.3,35.1c0,35.8,10.1,69.2,27.5,97.6
		c6.3,10.2,13.5,19.8,21.6,28.6c0,0,0,0,0,0c6.3,6.8,13.1,13.2,20.3,19c1,0.8,2,1.6,3,2.4C631.3,600.8,650,645.1,650,693.9z"/>
	<path class="st1" d="M570.4,244.5c-98.6-1.1-178.3-81.3-178.3-180.2c0-19.1,3-37.5,8.5-54.8c-19.9,31.5-31.4,68.8-31.4,108.8
		c0,112.9,91.5,204.4,204.4,204.4S778,231.1,778,118.2c0-43.4-13.5-83.7-36.6-116.8c7.3,19.6,11.3,40.7,11.3,62.8
		c0,95.8-74.8,174.2-169.3,179.9L570.4,244.5z"/>
	<path class="st1" d="M597.7,565.1c-6.5-5.9-9.8-8.9-12.4-11.1c-7.8-6.6-19.8-20.8-29.5-36.6c-5.8-9.3-13.3-23.4-19-41.6
		c-5.6-17.7-8.6-36.5-8.6-56c0-12,1.1-23.8,3.3-35.1c0-0.3,0-0.6,0.1-1c0.6-3.1,1.3-6.2,2.1-9.3c3.7,7.9,29.3,61.4,70.9,63.4
		c3.9,0.2,8.2-0.1,12.8-1c6.2,35.7,31.5,64.8,64.9,76.5c0.1,0,0.2,0.1,0.3,0.1c1.5,0.5,3,1,4.5,1.5c0.1,0,0.2,0.1,0.3,0.1
		c9.5,3.3,18.7,7.2,27.5,11.8c14.8,7.8,28.5,17.4,40.7,28.6c11.9,10.8,22.5,23.2,31.3,36.7c7.8,11.9,16.1,27.3,22.2,46.1
		c0,0,8.4,25.5,9.4,52.1c0,1.6,0.3,4.1,0.2,7.5c-0.3,5.6-1.4,10.1-2.3,13c-1.3,3-3.1,6.8-5.3,11.2l-96.3,166.8c0,0-0.1,0-0.1-0.1
		c0,0,0.1,0.1,0.1,0.1L650,1001.1l-75.5,130.8c-26.2-45-52.5-89.9-78.7-134.9L331.3,712l0,0l-1.4-2.4c0-0.3,0.1-0.7,0.1-1.1
		c0,0,0-0.1,0-0.2c0.6-0.7,1.2-1.4,1.7-2.1c1.4-1.6,2.8-3.2,4.2-4.8c0.8-0.8,1.5-1.6,2.3-2.4c0.8-0.8,1.5-1.6,2.3-2.3
		c0.9-0.9,1.8-1.9,2.7-2.8c1-1,2-2,3-2.9c4.7-4.5,9.7-8.7,14.9-12.6c0.8-0.6,1.6-1.2,2.5-1.8c5.3-3.9,10.7-7.5,16.4-10.8
		c1.2-0.7,2.4-1.4,3.7-2.1h0c0.2-0.2,0.4-0.3,0.6-0.5c0.1-0.1,0.3-0.2,0.4-0.3c0.5-0.3,0.9-0.6,1.4-0.9c0.8-0.5,1.6-1,2.5-1.5
		c0,0,0.1,0,0.1-0.1c1-0.6,2-1.2,3.1-1.7c0.5-0.2,0.9-0.5,1.4-0.7c0.2-0.1,0.4-0.2,0.6-0.3c0.8-0.4,1.6-0.8,2.4-1.1
		c0.5-0.2,1.1-0.5,1.7-0.7c0.6-0.2,1.2-0.5,1.8-0.7c0.7-0.3,1.5-0.5,2.3-0.8c0.9-0.3,1.9-0.6,2.8-0.9c0.8-0.2,1.6-0.4,2.4-0.6
		c4.9-1.1,10.9-1.8,15.2-2c0.7,0,1.4,0,2,0h0.3c1.1,0,2.3,0,3.4,0.1c1.2,0,2.4,0.2,3.6,0.3c1.2,0.1,2.4,0.3,3.5,0.5
		c2.3,0.3,4.6,0.8,6.9,1.4c0.1,0,0.3,0.1,0.5,0.1c0.9,0.2,1.8,0.5,2.6,0.7c0.2,0.1,0.5,0.2,0.7,0.2c28.9,9.1,49.8,36.1,49.8,68v22.7
		c0,92,66.6,168.5,154.2,183.8V693.9c0-14.3-1.6-33.9-8.5-56c0,0-9.3-29.7-31.2-59.1c-2.9-3.9-5.9-7.2-5.9-7.2
		C601.7,568.8,599.6,566.8,597.7,565.1z"/>
	<path d="M673.5,337.3c-1.3,0-2.5,0-3.8,0c-7.3,0-14.6,0.3-21.9,0.6c-12.3-10-28-16-45-16c-10.3,0-20.1,2.2-28.9,6.1c0,0,0,0,0,0
		c-5.5,2.4-10.6,5.5-15.2,9.2c-8.8,7-13.8,14.3-16,17.8c-3,4.6-5.2,9-6,11.2c-0.2,0.5-1.2,3.2-2.4,6.8c0,0,0,0.1,0,0.1
		c-0.1,0.5-0.2,0.9-0.3,1.3c3.9,35.7,34.2,63.4,70.9,63.4c11.1,0,21.6-2.5,30.9-7c0.9-0.4,1.8-0.9,2.6-1.4c0.9-0.5,1.7-1,2.6-1.5
		c0.6-0.4,1.2-0.7,1.8-1.1c11-7,20-17,25.8-28.8c0.1,0,0.2,0,0.3,0c29.2-5.4,59.3-8.3,90.1-8.3c75.9,0,147.8,17.3,211.9,48.2
		C888.2,374.8,785.2,337.3,673.5,337.3z M619,380.9c-4.4,1.5-9,2.2-13.9,2.2c-16.3,0-30.6-8.9-38.2-22c3.9-6.8,9.6-12.4,16.4-16.3
		c6.5-3.6,13.8-5.7,21.8-5.7c16.3,0,30.5,8.9,38.2,22.1C637.9,370.4,629.3,377.5,619,380.9z"/>
	<path class="st1" d="M643.3,361.1c-5.3,9.3-14,16.4-24.3,19.8c-4.4,1.5-9,2.2-13.9,2.2c-16.3,0-30.6-8.9-38.2-22
		c3.9-6.8,9.6-12.4,16.4-16.3c6.5-3.6,13.8-5.7,21.8-5.7C621.4,339.1,635.7,348,643.3,361.1z"/>
	<circle class="st0" cx="573.7" cy="117.9" r="115.4"/>
	<text transform="matrix(1 0 0 1 219.6797 926.2793)" class="st2 st3 st4">ASTROSOFT</text>
</g>
</svg>
